<svg width="200" height="55" viewBox="0 0 200 55" fill="none" xmlns="http://www.w3.org/2000/svg">
<g clip-path="url(#clip0_102_65)">
<path d="M70.9519 21.8369C69.5995 21.8369 68.5524 22.3469 67.8106 23.367C67.0687 24.3793 66.6978 25.7935 66.6978 27.6095C66.6978 31.3884 68.1158 33.2779 70.9519 33.2779C72.142 33.2779 73.5832 32.9804 75.2756 32.3853V35.3992C73.8846 35.9787 72.3313 36.2685 70.6158 36.2685C68.1506 36.2685 66.265 35.5228 64.959 34.0313C63.653 32.5321 63 30.3838 63 27.5863C63 25.8244 63.3207 24.2827 63.9621 22.9613C64.6035 21.6321 65.5231 20.6159 66.7209 19.9126C67.9265 19.2017 69.3368 18.8462 70.9519 18.8462C72.5979 18.8462 74.2517 19.2442 75.9132 20.0401L74.754 22.9613C74.1203 22.6599 73.4828 22.3971 72.8414 22.173C72.2 21.9489 71.5701 21.8369 70.9519 21.8369Z" fill="#0D3049"/>
<path d="M81.4308 29.5338C81.4308 30.8166 81.6395 31.7864 82.0568 32.4433C82.4818 33.1001 83.1696 33.4286 84.1201 33.4286C85.0629 33.4286 85.7391 33.104 86.1486 32.4549C86.5659 31.798 86.7746 30.8243 86.7746 29.5338C86.7746 28.2509 86.5659 27.2888 86.1486 26.6474C85.7313 26.006 85.0474 25.6853 84.0969 25.6853C83.1541 25.6853 82.4741 26.006 82.0568 26.6474C81.6395 27.2811 81.4308 28.2432 81.4308 29.5338ZM90.3912 29.5338C90.3912 31.6434 89.8348 33.2933 88.722 34.4834C87.6092 35.6735 86.0598 36.2685 84.0737 36.2685C82.8296 36.2685 81.7322 35.9981 80.7817 35.4571C79.8312 34.9084 79.1009 34.1241 78.5908 33.104C78.0808 32.0839 77.8258 30.8938 77.8258 29.5338C77.8258 27.4163 78.3783 25.7703 79.4834 24.5957C80.5885 23.4211 82.1418 22.8337 84.1433 22.8337C85.3875 22.8337 86.4848 23.1042 87.4353 23.6452C88.3858 24.1861 89.1161 24.9628 89.6262 25.9751C90.1362 26.9874 90.3912 28.1737 90.3912 29.5338Z" fill="#0D3049"/>
<path d="M97.4158 36.2685C95.8934 36.2685 94.6956 35.6774 93.8224 34.495C92.9568 33.3126 92.5241 31.6744 92.5241 29.5801C92.5241 27.455 92.9646 25.8012 93.8455 24.6189C94.7342 23.4288 95.9552 22.8337 97.5085 22.8337C99.1391 22.8337 100.383 23.4674 101.241 24.7348H101.357C101.179 23.7688 101.09 22.9072 101.09 22.1498V18H104.637V36.0367H101.925L101.241 34.3559H101.09C100.287 35.631 99.0618 36.2685 97.4158 36.2685ZM98.6561 33.4518C99.5603 33.4518 100.221 33.189 100.638 32.6635C101.063 32.138 101.295 31.2455 101.334 29.9858V29.6033C101.334 28.2123 101.117 27.2154 100.685 26.6126C100.26 26.0099 99.5641 25.7085 98.5981 25.7085C97.8099 25.7085 97.1955 26.0446 96.7551 26.717C96.3223 27.3816 96.1059 28.3514 96.1059 29.6265C96.1059 30.9016 96.3262 31.8598 96.7666 32.5012C97.2071 33.1349 97.8369 33.4518 98.6561 33.4518Z" fill="#0D3049"/>
<path d="M113.702 25.3491C112.953 25.3491 112.365 25.5887 111.94 26.0678C111.515 26.5392 111.272 27.2115 111.21 28.0848H116.171C116.156 27.2115 115.928 26.5392 115.487 26.0678C115.047 25.5887 114.452 25.3491 113.702 25.3491ZM114.201 36.2685C112.114 36.2685 110.484 35.6928 109.309 34.5414C108.134 33.3899 107.547 31.7594 107.547 29.6497C107.547 27.4782 108.088 25.8012 109.17 24.6189C110.259 23.4288 111.762 22.8337 113.679 22.8337C115.51 22.8337 116.936 23.3554 117.956 24.3986C118.976 25.4419 119.486 26.8831 119.486 28.7223V30.4379H111.129C111.167 31.4425 111.465 32.2269 112.021 32.791C112.578 33.3552 113.358 33.6372 114.363 33.6372C115.143 33.6372 115.881 33.5561 116.577 33.3938C117.272 33.2315 117.999 32.9726 118.756 32.6171V35.3528C118.138 35.6619 117.477 35.8899 116.774 36.0367C116.071 36.1913 115.213 36.2685 114.201 36.2685Z" fill="#0D3049"/>
<path d="M134.324 36.0367H130.788V28.4673C130.788 27.5323 130.622 26.8329 130.29 26.3692C129.958 25.8978 129.428 25.6621 128.702 25.6621C127.713 25.6621 126.998 25.9944 126.557 26.659C126.117 27.3159 125.897 28.4094 125.897 29.9395V36.0367H122.361V23.0772H125.062L125.537 24.7348H125.734C126.128 24.1088 126.669 23.6374 127.357 23.3206C128.053 22.996 128.841 22.8337 129.722 22.8337C131.229 22.8337 132.373 23.2433 133.153 24.0625C133.934 24.8739 134.324 26.0485 134.324 27.5863V36.0367Z" fill="#0D3049"/>
<path d="M140.78 29.5338C140.78 30.8166 140.989 31.7864 141.406 32.4433C141.831 33.1001 142.519 33.4286 143.47 33.4286C144.412 33.4286 145.089 33.104 145.498 32.4549C145.916 31.798 146.124 30.8243 146.124 29.5338C146.124 28.2509 145.916 27.2888 145.498 26.6474C145.081 26.006 144.397 25.6853 143.446 25.6853C142.504 25.6853 141.824 26.006 141.406 26.6474C140.989 27.2811 140.78 28.2432 140.78 29.5338ZM149.741 29.5338C149.741 31.6434 149.184 33.2933 148.072 34.4834C146.959 35.6735 145.409 36.2685 143.423 36.2685C142.179 36.2685 141.082 35.9981 140.131 35.4571C139.181 34.9084 138.45 34.1241 137.94 33.104C137.43 32.0839 137.175 30.8938 137.175 29.5338C137.175 27.4163 137.728 25.7703 138.833 24.5957C139.938 23.4211 141.491 22.8337 143.493 22.8337C144.737 22.8337 145.834 23.1042 146.785 23.6452C147.735 24.1861 148.466 24.9628 148.976 25.9751C149.486 26.9874 149.741 28.1737 149.741 29.5338Z" fill="#0D3049"/>
<path d="M158.122 33.4518C158.74 33.4518 159.482 33.3165 160.347 33.046V35.6774C159.466 36.0715 158.384 36.2685 157.101 36.2685C155.687 36.2685 154.656 35.9131 154.007 35.2021C153.365 34.4834 153.044 33.4092 153.044 31.9796V25.7317H151.352V24.2363L153.299 23.054L154.319 20.3183H156.58V23.0772H160.208V25.7317H156.58V31.9796C156.58 32.4819 156.719 32.8528 156.997 33.0924C157.283 33.332 157.658 33.4518 158.122 33.4518Z" fill="#0D3049"/>
<path d="M171.209 36.0367L170.525 34.2748H170.432C169.837 35.0244 169.223 35.546 168.589 35.8396C167.963 36.1256 167.144 36.2685 166.131 36.2685C164.887 36.2685 163.906 35.9131 163.187 35.2021C162.476 34.4911 162.121 33.4788 162.121 32.1651C162.121 30.7895 162.6 29.7772 163.558 29.128C164.524 28.4712 165.977 28.108 167.917 28.0384L170.165 27.9689V27.4009C170.165 26.0872 169.493 25.4303 168.148 25.4303C167.113 25.4303 165.896 25.7433 164.497 26.3692L163.326 23.9813C164.818 23.2008 166.471 22.8106 168.287 22.8106C170.026 22.8106 171.359 23.1892 172.287 23.9465C173.214 24.7039 173.678 25.8553 173.678 27.4009V36.0367H171.209ZM170.165 30.0322L168.798 30.0786C167.77 30.1095 167.005 30.2949 166.502 30.635C166 30.975 165.749 31.4928 165.749 32.1883C165.749 33.1851 166.321 33.6836 167.464 33.6836C168.284 33.6836 168.937 33.4479 169.423 32.9765C169.918 32.5051 170.165 31.8791 170.165 31.0986V30.0322Z" fill="#0D3049"/>
<path d="M184.562 22.8337C185.041 22.8337 185.439 22.8685 185.756 22.9381L185.49 26.2533C185.204 26.176 184.856 26.1374 184.446 26.1374C183.318 26.1374 182.437 26.4272 181.803 27.0068C181.177 27.5863 180.864 28.3978 180.864 29.441V36.0367H177.329V23.0772H180.007L180.528 25.2564H180.702C181.104 24.53 181.645 23.9465 182.325 23.5061C183.013 23.0579 183.759 22.8337 184.562 22.8337Z" fill="#0D3049"/>
<path d="M186.255 23.0772H190.126L192.572 30.3684C192.781 31.002 192.924 31.7516 193.001 32.6171H193.071C193.156 31.8212 193.322 31.0716 193.569 30.3684L195.968 23.0772H199.759L194.276 37.6943C193.774 39.0467 193.055 40.059 192.12 40.7313C191.193 41.4037 190.107 41.7398 188.863 41.7398C188.252 41.7398 187.653 41.6741 187.066 41.5428V38.7376C187.491 38.838 187.955 38.8883 188.457 38.8883C189.083 38.8883 189.628 38.6951 190.091 38.3087C190.563 37.93 190.93 37.3543 191.193 36.5815L191.401 35.944L186.255 23.0772Z" fill="#0D3049"/>
<path d="M27.8434 0.739655C12.8831 0.739655 0.739746 12.883 0.739746 27.8433C0.739746 42.8035 12.8831 54.9469 27.8434 54.9469C42.8036 54.9232 54.9233 42.8035 54.947 27.8433C54.947 12.883 42.8036 0.739655 27.8434 0.739655ZM27.8434 1.92322C42.1408 1.94689 53.7398 13.5458 53.7634 27.8433C53.7634 42.1644 42.1645 53.7633 27.8434 53.7633C13.5222 53.7633 1.92331 42.1644 1.92331 27.8433C1.92331 13.5221 13.5222 1.92322 27.8434 1.92322Z" fill="#0D3049"/>
<path d="M27.8435 51.9643C26.4469 51.9643 25.0503 51.846 23.6537 51.6092C23.4407 51.5856 23.2513 51.4435 23.1803 51.2305C23.1093 51.0175 23.1329 50.8044 23.275 50.6387C23.417 50.473 23.63 50.402 23.8431 50.4494C26.4706 50.8991 29.1691 50.8991 31.8203 50.4494C32.1517 50.402 32.4594 50.6151 32.5068 50.9228C32.5541 51.2542 32.3411 51.5619 32.0333 51.6092C30.6604 51.846 29.2401 51.9643 27.8435 51.9643ZM16.0789 48.8397C15.9842 48.8397 15.8658 48.816 15.7948 48.7687C13.3567 47.3484 11.2026 45.5257 9.37992 43.3716C9.16688 43.1113 9.19055 42.7562 9.45094 42.5431C9.71132 42.3301 10.0664 42.3538 10.2794 42.6142C12.0074 44.6736 14.0668 46.4016 16.3629 47.7272C16.5997 47.8692 16.6943 48.1296 16.647 48.39C16.5997 48.6503 16.3629 48.8397 16.0789 48.8397ZM39.6318 48.8397C39.3714 48.8397 39.1347 48.6503 39.0637 48.4136C38.9927 48.1769 39.111 47.8692 39.3478 47.7508C41.6675 46.4016 43.7269 44.6736 45.4549 42.6378C45.597 42.4721 45.81 42.3774 46.0231 42.4248C46.2361 42.4721 46.4018 42.6142 46.4965 42.8035C46.5675 43.0166 46.5201 43.2296 46.3781 43.3953C44.5791 45.5494 42.4013 47.3721 39.9632 48.7687C39.8212 48.7924 39.7265 48.816 39.6318 48.8397ZM5.73455 36.5306C5.47416 36.5306 5.26112 36.3649 5.16643 36.1282C4.19591 33.477 3.69882 30.6838 3.72249 27.8669C3.72249 27.7012 3.7935 27.5592 3.88819 27.4409C4.00654 27.3225 4.14857 27.2752 4.31427 27.2752C4.64567 27.2752 4.90605 27.5355 4.90605 27.8669C4.90605 30.5418 5.37948 33.193 6.30266 35.7021C6.42101 36.0099 6.25531 36.3413 5.94759 36.4596C5.8529 36.507 5.80556 36.507 5.73455 36.5306ZM49.9762 36.507C49.9051 36.507 49.8341 36.507 49.7631 36.4833C49.6211 36.436 49.5027 36.3176 49.4317 36.1756C49.3607 36.0335 49.3607 35.8678 49.408 35.7258C50.3312 33.2167 50.781 30.5418 50.781 27.8669V27.8196C50.781 27.4882 51.0414 27.2278 51.3728 27.2278C51.7042 27.2278 51.9645 27.4882 51.9645 27.8196V27.8669C51.9645 30.6838 51.4674 33.477 50.5206 36.1282C50.4496 36.3413 50.2129 36.4833 49.9762 36.507ZM5.71087 20.4105C5.5215 20.4105 5.33213 20.3158 5.21378 20.1501C5.09542 19.9844 5.07175 19.795 5.14276 19.6057C6.11329 16.9545 7.50989 14.4927 9.33258 12.3386C9.54562 12.0782 9.92436 12.0545 10.1611 12.2676C10.3978 12.4806 10.4451 12.8593 10.2321 13.0961C8.50408 15.1555 7.15482 17.4752 6.25531 20.0081C6.1843 20.2448 5.97126 20.4105 5.71087 20.4105ZM49.9525 20.3395C49.6921 20.3395 49.4791 20.1738 49.3844 19.9607C48.4612 17.4516 47.1119 15.1081 45.3839 13.0724C45.2419 12.9067 45.2182 12.6936 45.2892 12.4806C45.3603 12.2912 45.526 12.1255 45.739 12.1019C45.952 12.0782 46.1651 12.1492 46.3071 12.3149C48.1298 14.469 49.5501 16.9071 50.5206 19.5583C50.6389 19.866 50.4733 20.1974 50.1655 20.3158C50.0945 20.3158 50.0235 20.3395 49.9525 20.3395ZM16.0552 8.05408C15.7948 8.05408 15.5581 7.86471 15.4871 7.60432C15.4161 7.34394 15.5345 7.08355 15.7712 6.94153C18.2093 5.52125 20.8605 4.55073 23.63 4.05363C23.8431 4.00629 24.0561 4.10097 24.1981 4.26667C24.3402 4.43237 24.3638 4.64541 24.2928 4.85845C24.2218 5.07149 24.0561 5.21352 23.8431 5.23719C21.2156 5.71062 18.6827 6.6338 16.3629 7.98306C16.2446 8.03041 16.1499 8.05408 16.0552 8.05408ZM39.5845 8.03041C39.4898 8.03041 39.3714 8.00673 39.3004 7.95939C36.9806 6.6338 34.4478 5.71062 31.7966 5.23719C31.4889 5.16618 31.2995 4.85845 31.3469 4.55073C31.3942 4.243 31.7019 4.02996 32.0097 4.0773C34.7792 4.55073 37.454 5.52125 39.8922 6.91786C40.1289 7.05988 40.2473 7.32027 40.1762 7.58065C40.0816 7.84104 39.8449 8.00673 39.5845 8.03041Z" fill="#0D3049"/>
<path d="M27.8434 48.8397C16.2444 48.8397 6.84692 39.4422 6.84692 27.8433C6.84692 16.2443 16.2444 6.84683 27.8434 6.84683C39.4423 6.84683 48.8398 16.2443 48.8398 27.8433C48.8161 39.4185 39.4186 48.816 27.8434 48.8397ZM27.8434 8.0304C16.9072 8.0304 8.03049 16.9071 8.03049 27.8433C8.03049 38.7794 16.9072 47.6561 27.8434 47.6561C38.7795 47.6561 47.6562 38.7794 47.6562 27.8433C47.6326 16.9071 38.7795 8.05407 27.8434 8.0304Z" fill="#0D3049"/>
<path d="M26.7308 33.7611C26.6835 33.7611 26.6361 33.7611 26.5888 33.7374C24.4347 33.1693 22.7304 31.536 22.0439 29.4292C21.3574 27.3225 21.7835 25.0027 23.2038 23.2747V23.251C23.3458 23.0853 23.4878 22.9196 23.6299 22.7776L28.9086 17.4989C30.5656 15.8419 32.98 15.2028 35.2288 15.7946C37.5012 16.41 39.2529 18.1617 39.8684 20.4342C40.4838 22.7066 39.821 25.1211 38.164 26.7544L32.8853 32.0331C32.7196 32.1988 32.5539 32.3408 32.3882 32.4828C32.1515 32.6722 31.8201 32.6485 31.6071 32.4355C31.3941 32.2225 31.3704 31.8911 31.5598 31.6543C32.6486 30.3051 33.0274 28.5297 32.5776 26.8727C32.5303 26.6597 32.5776 26.4467 32.7196 26.3046L35.2051 23.8192C36.1046 22.8723 36.081 21.4047 35.1578 20.4815C34.2346 19.5583 32.7433 19.5347 31.8201 20.4342L26.5414 25.7129C26.4231 25.8312 26.3284 25.9496 26.2337 26.0916C25.6183 27.0384 25.7366 28.293 26.5414 29.0978C27.3463 29.9027 28.6008 30.021 29.5477 29.4056C29.7844 29.2635 30.0921 29.2872 30.2815 29.4766C30.4709 29.666 30.5182 29.9737 30.3525 30.2104C30.2105 30.4234 30.0685 30.6128 29.9028 30.7785L27.1095 33.5717C27.0385 33.7137 26.8728 33.7611 26.7308 33.7611ZM24.1033 24.0322C22.9907 25.4051 22.6357 27.2278 23.1328 28.9085C23.6299 30.5891 24.9081 31.9384 26.5651 32.5065L28.0801 30.9915C26.8018 30.9205 25.6656 30.1867 25.0738 29.0505C24.5057 27.9143 24.5767 26.5413 25.2869 25.4761C25.4289 25.2631 25.5709 25.0737 25.7366 24.908L31.0153 19.653C32.4119 18.2564 34.6844 18.2564 36.081 19.653C37.4776 21.0496 37.4776 23.3221 36.081 24.7187L33.8322 26.9674C33.9269 27.4172 33.9742 27.8669 33.9742 28.3404C33.9742 28.7191 33.9506 29.0978 33.8795 29.4766L37.3592 26.0206C39.466 23.9138 39.466 20.5052 37.3592 18.4221C35.2525 16.3154 31.8438 16.3154 29.7607 18.4221L24.482 23.7008C24.34 23.7481 24.2217 23.8665 24.1033 24.0322Z" fill="#0D3049"/>
<path d="M28.2694 30.9916C26.9438 30.9916 25.7366 30.2814 25.1211 29.1215C24.5057 27.9616 24.553 26.565 25.2868 25.4525C25.3341 25.3815 25.3815 25.3341 25.4525 25.2868C26.5414 24.5766 27.9616 24.5056 29.1215 25.1211C30.2814 25.7365 30.9916 26.9438 30.9916 28.2694C30.9916 28.9558 30.7785 29.6423 30.3998 30.2341C30.3524 30.3051 30.3051 30.3524 30.2341 30.3998C29.6423 30.7785 28.9795 30.9916 28.2694 30.9916ZM26.21 26.21C25.6655 27.1568 25.8076 28.3404 26.5887 29.0979C27.3462 29.8553 28.5534 30.021 29.4766 29.4766C29.6896 29.0979 29.808 28.6954 29.808 28.2694C29.808 27.4172 29.3582 26.6124 28.6008 26.1863C27.8433 25.7602 26.9438 25.7839 26.21 26.21Z" fill="#0D3049"/>
<path d="M33.1694 27.3225C33.122 27.3225 33.0747 27.3225 33.0273 27.2989C32.8143 27.2515 32.6723 27.0858 32.6013 26.8728C32.1042 25.0264 30.6602 23.5825 28.8139 23.0854C28.6008 23.038 28.4588 22.8723 28.4114 22.6593C28.3641 22.4462 28.4114 22.2332 28.5771 22.0912L31.039 19.6057C32.4356 18.2091 34.708 18.2091 36.1046 19.6057C37.5012 21.0023 37.5012 23.2747 36.1046 24.6713L33.6191 27.1332C33.4771 27.2515 33.3351 27.3225 33.1694 27.3225ZM30.0448 22.2569C31.5597 22.9197 32.767 24.1269 33.4298 25.6419L35.2288 23.8192C35.8442 23.2274 36.1046 22.3279 35.8916 21.4994C35.6785 20.6709 35.0157 20.0081 34.1872 19.7951C33.3587 19.582 32.4592 19.8187 31.8674 20.4579L30.0448 22.2569Z" fill="#0D3049"/>
<path d="M28.2694 30.9916C26.9438 30.9916 25.7366 30.2814 25.1211 29.1215C24.5057 27.9616 24.553 26.565 25.2868 25.4525C25.3341 25.3815 25.3815 25.3341 25.4525 25.2868C26.5414 24.5766 27.9616 24.5056 29.1215 25.1211C30.2814 25.7365 30.9916 26.9438 30.9916 28.2694C30.9916 28.9558 30.7785 29.6423 30.3998 30.2341C30.3524 30.3051 30.3051 30.3524 30.2341 30.3998C29.6423 30.7785 28.9795 30.9916 28.2694 30.9916ZM26.21 26.21C25.6655 27.1568 25.8076 28.3404 26.5887 29.0979C27.3462 29.8553 28.5534 30.021 29.4766 29.4766C29.6896 29.0979 29.808 28.6954 29.808 28.2694C29.808 27.4172 29.3582 26.6124 28.6008 26.1863C27.8433 25.7602 26.9438 25.7839 26.21 26.21Z" fill="#0D3049"/>
<path d="M33.1694 27.3225C33.122 27.3225 33.0747 27.3225 33.0273 27.2989C32.8143 27.2515 32.6723 27.0858 32.6013 26.8728C32.1042 25.0264 30.6602 23.5825 28.8139 23.0854C28.6008 23.038 28.4588 22.8723 28.4114 22.6593C28.3641 22.4462 28.4114 22.2332 28.5771 22.0912L31.039 19.6057C32.4356 18.2091 34.708 18.2091 36.1046 19.6057C37.5012 21.0023 37.5012 23.2747 36.1046 24.6713L33.6191 27.1332C33.4771 27.2515 33.3351 27.3225 33.1694 27.3225ZM30.0448 22.2569C31.5597 22.9197 32.767 24.1269 33.4298 25.6419L35.2288 23.8192C35.8442 23.2274 36.1046 22.3279 35.8916 21.4994C35.6785 20.6709 35.0157 20.0081 34.1872 19.7951C33.3587 19.582 32.4592 19.8187 31.8674 20.4579L30.0448 22.2569Z" fill="#0D3049"/>
<path d="M22.1387 40.105C19.4875 40.105 17.0967 38.519 16.0789 36.0572C15.061 33.6191 15.6291 30.7785 17.4991 28.9085L22.7778 23.6298C22.9435 23.4641 23.1092 23.3221 23.2749 23.18C23.5116 22.9907 23.843 23.0143 24.0561 23.2274C24.2691 23.4404 24.2928 23.7718 24.1034 24.0085C23.0145 25.3578 22.6358 27.1331 23.0856 28.7901C23.1329 29.0032 23.0856 29.2162 22.9435 29.3582L20.4581 31.8437C19.5585 32.7906 19.5822 34.2582 20.5054 35.1814C21.4286 36.1046 22.9199 36.1282 23.843 35.2287L29.1217 29.9737C29.2401 29.8553 29.3348 29.737 29.4295 29.595C29.6899 29.1925 29.8082 28.7428 29.8319 28.2694C29.8319 27.3935 29.3348 26.5887 28.5773 26.1626C27.7962 25.7365 26.873 25.7839 26.1392 26.2573C25.9024 26.3993 25.5947 26.3757 25.4054 26.1863C25.216 25.9969 25.1686 25.6892 25.3343 25.4525C25.4764 25.2394 25.6184 25.0501 25.7841 24.8844L28.5536 22.0912C28.6957 21.9491 28.9087 21.8781 29.1217 21.9255C31.2758 22.4936 32.9802 24.1269 33.6666 26.2336C34.3531 28.3404 33.927 30.6602 32.5067 32.3882V32.4118C32.3647 32.5775 32.2227 32.7432 32.0807 32.8853L26.7783 38.164C25.5474 39.4185 23.8904 40.105 22.1387 40.105ZM21.831 26.281L18.3513 29.737C16.2919 31.8437 16.3156 35.205 18.3986 37.2881C20.4817 39.3712 23.843 39.3949 25.9498 37.3355L31.2285 32.0568C31.3468 31.9384 31.4652 31.7964 31.5836 31.6544L31.6072 31.6307C32.7198 30.2578 33.0749 28.4351 32.5778 26.7544C32.0807 25.0737 30.8024 23.7245 29.1454 23.1564L27.6305 24.695C28.9087 24.766 30.0449 25.4998 30.6367 26.636C31.2048 27.7723 31.1338 29.1452 30.4237 30.2104C30.2816 30.4235 30.1396 30.6128 29.9739 30.7785L24.6952 36.0572C23.2986 37.4538 21.0262 37.4538 19.6296 36.0572C18.2329 34.6606 18.2329 32.3882 19.6296 30.9916L21.8783 28.7428C21.689 27.9616 21.6653 27.1095 21.831 26.281Z" fill="#0D3049"/>
<path d="M28.2694 30.9916C26.9438 30.9916 25.7366 30.2814 25.1211 29.1215C24.5057 27.9616 24.553 26.565 25.2868 25.4525C25.3341 25.3815 25.3815 25.3341 25.4525 25.2868C26.8728 24.3636 28.7428 24.553 29.95 25.7602C31.1572 26.9674 31.3466 28.8375 30.4234 30.2578C30.3761 30.3288 30.3287 30.3761 30.2577 30.4235C29.6423 30.7785 28.9795 30.9916 28.2694 30.9916ZM26.21 26.21C25.6655 27.1568 25.8076 28.3404 26.5887 29.0979C27.3462 29.8553 28.5534 30.021 29.4766 29.4766C29.6896 29.0979 29.808 28.6954 29.808 28.2694C29.808 27.4172 29.3346 26.636 28.6008 26.21C27.867 25.7839 26.9438 25.7839 26.21 26.21Z" fill="#0D3049"/>
<path d="M22.1385 37.1224C20.6946 37.1224 19.3927 36.2466 18.8482 34.921C18.3038 33.5954 18.6115 32.0568 19.6294 31.0152L22.0912 28.5534C22.2332 28.4114 22.4699 28.3404 22.6593 28.3877C22.8723 28.4351 23.0144 28.6008 23.0854 28.8138C23.5825 30.6602 25.0264 32.1041 26.8728 32.6012C27.0858 32.6485 27.2279 32.8142 27.2989 33.0273C27.3462 33.2403 27.2989 33.4534 27.1568 33.5954L24.695 36.0572C24.0086 36.7437 23.0854 37.1224 22.1385 37.1224ZM22.2569 30.0447L20.4342 31.8437C19.5347 32.7906 19.5584 34.2582 20.4815 35.1814C21.4047 36.1046 22.896 36.1282 23.8192 35.2287L25.6419 33.4297C24.1269 32.7669 22.9197 31.5597 22.2569 30.0447Z" fill="#0D3049"/>
<path d="M28.2694 30.9916C26.9438 30.9916 25.7366 30.2814 25.1211 29.1215C24.5057 27.9616 24.553 26.565 25.2868 25.4525C25.3341 25.3815 25.3815 25.3341 25.4525 25.2868C26.8728 24.3636 28.7428 24.553 29.95 25.7602C31.1572 26.9674 31.3466 28.8375 30.4234 30.2578C30.3761 30.3288 30.3287 30.3761 30.2577 30.4235C29.6423 30.7785 28.9795 30.9916 28.2694 30.9916ZM26.21 26.21C25.6655 27.1568 25.8076 28.3404 26.5887 29.0979C27.3462 29.8553 28.5534 30.021 29.4766 29.4766C29.6896 29.0979 29.808 28.6954 29.808 28.2694C29.808 27.4172 29.3346 26.636 28.6008 26.21C27.867 25.7839 26.9438 25.7839 26.21 26.21Z" fill="#0D3049"/>
<path d="M22.1385 37.1224C20.6946 37.1224 19.3927 36.2466 18.8482 34.921C18.3038 33.5954 18.6115 32.0568 19.6294 31.0152L22.0912 28.5534C22.2332 28.4114 22.4699 28.3404 22.6593 28.3877C22.8723 28.4351 23.0144 28.6008 23.0854 28.8138C23.5825 30.6602 25.0264 32.1041 26.8728 32.6012C27.0858 32.6485 27.2279 32.8142 27.2989 33.0273C27.3462 33.2403 27.2989 33.4534 27.1568 33.5954L24.695 36.0572C24.0086 36.7437 23.0854 37.1224 22.1385 37.1224ZM22.2569 30.0447L20.4342 31.8437C19.5347 32.7906 19.5584 34.2582 20.4815 35.1814C21.4047 36.1046 22.896 36.1282 23.8192 35.2287L25.6419 33.4297C24.1269 32.7669 22.9197 31.5597 22.2569 30.0447Z" fill="#0D3049"/>
</g>
<defs>
<clipPath id="clip0_102_65">
<rect width="200" height="55" fill="white"/>
</clipPath>
</defs>
</svg>
